<?xml version="1.0" encoding="utf-8"?>
<!-- Generator: Adobe Illustrator 22.0.1, SVG Export Plug-In . SVG Version: 6.00 Build 0)  -->
<svg version="1.1" id="Layer_1" xmlns="http://www.w3.org/2000/svg" xmlns:xlink="http://www.w3.org/1999/xlink" x="0px" y="0px"
	 viewBox="0 0 528 528" style="enable-background:new 0 0 528 528;" xml:space="preserve">
<style type="text/css">
	.st0{fill:#2196F3;}
	.st1{fill:#FFFFFF;}
</style>
<g id="surface1">
	<path class="st0" d="M23,507V14l493,246.5L23,507z"/>
</g>
<g id="surface1_1_">
	<path class="st1" d="M259.5,348.1c0,17.3-9.8,25-32.4,25c-18.7,0-34.4-6.7-54-6.7c-19.6,0-31.4,9.6-53.1,9.6
		c-20.6,0-28.5-14.5-28.5-25c0-21.2,15.7-24.1,33.4-42.4c17.7-18.3,27.5-37.6,46.2-37.6c21.6,0,28.5,23.1,44.2,41.4
		C229,329.8,259.5,327.9,259.5,348.1z"/>
	<path class="st1" d="M217.6,243c23.3,0,34.9-29.3,34.9-56.6S236,145,225.4,145c-23.3,0-35.9,25.3-35.9,42.4
		C189.5,203.6,196.3,243,217.6,243z"/>
	<path class="st1" d="M139.7,236c23.5,0,28.8-28.4,28.8-54.8c0-19.6-13.9-36.2-27.8-36.2c-24.6,0-35.2,23.5-35.2,43
		C105.5,203.8,119.4,236,139.7,236z"/>
	<path class="st1" d="M112.5,264.2c0-17.6-15.5-35.2-29.9-35.2c-14.5,0-33.1,21.5-33.1,44.9c0,15.6,12.4,39.1,32,39.1
		C100.1,313,112.5,288.6,112.5,264.2z"/>
	<path class="st1" d="M285.6,229.5c-13.6-2.9-28.1,8.8-39.8,32.2c-14.5,26.4-5.8,46.9,10.7,50.8c16.5,3.9,33-12.7,41.7-37.1
		C306,256.8,299.2,232.4,285.6,229.5z"/>
	<path class="st1" d="M135,318.3c4.9-5,9.2-10.1,13-14.7c10.1-11.9,16.1-18.6,23.1-18.6c7.3,0,11.7,5.5,20.7,19
		c23.5,40.3,59.8,29.1,67.7,44c0-20.2-30.5-18.3-44.2-35.6c-15.7-18.3-22.6-41.4-44.2-41.4c-18.7,0-28.5,19.3-46.2,37.6
		c-17.7,18.3-33.4,21.2-33.4,42.4c0,0.3,0.1,0.6,0.1,0.9C93.4,335.7,121.8,331.3,135,318.3z"/>
	<path class="st1" d="M225.3,159c9,0.7,25.7,22.8,26.1,42c0.7-4.8,1.1-9.7,1.1-14.6c0-27.3-16.5-41.4-27.1-41.4
		c-23.3,0-35.9,25.3-35.9,42.4c0,3.9,0.4,9.2,1.3,15c0,0,0-0.1,0-0.1C190.8,188.6,207,159.3,225.3,159z"/>
	<path class="st1" d="M140.7,159c4.8,0,27.4,12.9,27.1,37.3c0.5-5,0.7-10.1,0.7-15.1c0-19.6-13.9-36.2-27.8-36.2
		c-24.6,0-35.2,23.5-35.2,43c0,4,0.9,9.1,2.6,14.4c-0.1-0.5-0.2-1-0.2-1.4C107.9,191,123.9,159,140.7,159z"/>
	<path class="st1" d="M82.6,243c19.9,0,29.5,28.6,29.5,28.6c0.3-2.5,0.4-5,0.4-7.5c0-17.6-15.5-35.2-29.9-35.2
		c-14.5,0-33.1,21.5-33.1,44.9c0,4,0.8,8.5,2.4,13c-0.1-0.4-0.2-0.9-0.2-1.4C51.7,268.7,70.8,243,82.6,243z"/>
	<path class="st1" d="M285.6,229.5c-1.4-0.3-2.8-0.4-4.1-0.4c-12.3,0-25.2,11.6-35.6,32.6c-5.5,10-7.7,19.1-7.3,26.9
		c3.3-12,26.6-45.9,43-45.5c0.4,0,0.8,0,1,0.1c11.7,3,12.1,34.9,8,48.5c3-4.8,5.6-10.3,7.7-16.3C306,256.8,299.2,232.4,285.6,229.5z
		"/>
</g>
</svg>
