<?xml version="1.0" encoding="UTF-8" standalone="no"?>
<!DOCTYPE svg PUBLIC "-//W3C//DTD SVG 1.1//EN"
 "http://www.w3.org/Graphics/SVG/1.1/DTD/svg11.dtd">
<!-- Generated by graphviz version 2.38.0 (20140413.2041)
 -->
<!-- Title: G Pages: 1 -->
<svg width="762pt" height="325pt"
 viewBox="0.00 0.00 762.10 325.00" xmlns="http://www.w3.org/2000/svg" xmlns:xlink="http://www.w3.org/1999/xlink">
<g id="graph0" class="graph" transform="scale(1 1) rotate(0) translate(4 321)">
<title>G</title>
<polygon fill="white" stroke="none" points="-4,4 -4,-321 758.104,-321 758.104,4 -4,4"/>
<!-- A0 -->
<g id="node1" class="node"><title>A0</title>
<polygon fill="beige" stroke="black" points="88.9264,-161 17.0036,-161 17.0036,-125 94.9264,-125 94.9264,-155 88.9264,-161"/>
<polyline fill="none" stroke="black" points="88.9264,-161 88.9264,-155 "/>
<polyline fill="none" stroke="black" points="94.9264,-155 88.9264,-155 "/>
<text text-anchor="middle" x="55.965" y="-140" font-family="Helvetica,sans-Serif" font-size="10.00">Cutie Shop</text>
</g>
<!-- A1 -->
<g id="node2" class="node"><title>A1</title>
<g transform="translate(55.965,-212)" style="fill:none;stroke:black;stroke-width:1px"><circle cx="0" cy="-20" r="7.5" />
                <line x1="0" y1="-12.5" x2="0" y2="5" />
                <line x1="-15" y1="-5" x2="15" y2="-5" />
                <line x1="0" y1="5" x2="-15" y2="17" />
                <line x1="0" y1="5" x2="15" y2="17" /></g>
<text text-anchor="middle" x="55.965" y="-187" font-family="Helvetica,sans-Serif" font-size="10.00">Khach hang</text>
</g>
<!-- A2 -->
<g id="node3" class="node"><title>A2</title>
<ellipse fill="none" stroke="black" cx="231.233" cy="-299" rx="68.1065" ry="18"/>
<text text-anchor="middle" x="231.233" y="-296" font-family="Helvetica,sans-Serif" font-size="10.00">Dang ky thanh vien</text>
</g>
<!-- A1&#45;&gt;A2 -->
<g id="edge1" class="edge"><title>A1&#45;&gt;A2</title>
<path fill="none" stroke="black" d="M108.358,-251.04C117.641,-256.785 127.403,-262.357 136.93,-267 151.862,-274.277 168.874,-280.634 184.246,-285.723"/>
</g>
<!-- A3 -->
<g id="node4" class="node"><title>A3</title>
<ellipse fill="none" stroke="black" cx="370.785" cy="-257" rx="46.5003" ry="18"/>
<text text-anchor="middle" x="370.785" y="-254" font-family="Helvetica,sans-Serif" font-size="10.00">Dang nhap</text>
</g>
<!-- A1&#45;&gt;A3 -->
<g id="edge2" class="edge"><title>A1&#45;&gt;A3</title>
<path fill="none" stroke="black" d="M111.963,-225.028C120.316,-226.436 128.843,-227.807 136.93,-229 202.589,-238.688 279.037,-247.391 325.917,-252.435"/>
</g>
<!-- A4 -->
<g id="node5" class="node"><title>A4</title>
<ellipse fill="none" stroke="black" cx="370.785" cy="-215" rx="44.4846" ry="18"/>
<text text-anchor="middle" x="370.785" y="-212" font-family="Helvetica,sans-Serif" font-size="10.00">Dang xuat</text>
</g>
<!-- A1&#45;&gt;A4 -->
<g id="edge3" class="edge"><title>A1&#45;&gt;A4</title>
<path fill="none" stroke="black" d="M112.171,-215C173.21,-215 270.286,-215 326.212,-215"/>
</g>
<!-- A5 -->
<g id="node6" class="node"><title>A5</title>
<ellipse fill="none" stroke="black" cx="231.233" cy="-169" rx="58.8923" ry="18"/>
<text text-anchor="middle" x="231.233" y="-166" font-family="Helvetica,sans-Serif" font-size="10.00">Dat hang online</text>
</g>
<!-- A1&#45;&gt;A5 -->
<g id="edge4" class="edge"><title>A1&#45;&gt;A5</title>
<path fill="none" stroke="black" d="M112.264,-200.319C136.133,-193.982 163.669,-186.672 186.131,-180.708"/>
</g>
<!-- A7 -->
<g id="node8" class="node"><title>A7</title>
<ellipse fill="none" stroke="black" cx="231.233" cy="-110" rx="65.0824" ry="18"/>
<text text-anchor="middle" x="231.233" y="-107" font-family="Helvetica,sans-Serif" font-size="10.00">Tra cuu san pham</text>
</g>
<!-- A1&#45;&gt;A7 -->
<g id="edge7" class="edge"><title>A1&#45;&gt;A7</title>
<path fill="none" stroke="black" d="M105.767,-178.97C123.385,-166.615 143.679,-153.113 162.93,-142 173.239,-136.049 184.83,-130.243 195.451,-125.245"/>
</g>
<!-- A9 -->
<g id="node10" class="node"><title>A9</title>
<g transform="translate(702.314,-166)" style="fill:none;stroke:black;stroke-width:1px"><circle cx="0" cy="-20" r="7.5" />
                <line x1="0" y1="-12.5" x2="0" y2="5" />
                <line x1="-15" y1="-5" x2="15" y2="-5" />
                <line x1="0" y1="5" x2="-15" y2="17" />
                <line x1="0" y1="5" x2="15" y2="17" /></g>
<text text-anchor="middle" x="702.314" y="-141" font-family="Helvetica,sans-Serif" font-size="10.00">Nhan vien</text>
</g>
<!-- A3&#45;&gt;A9 -->
<g id="edge8" class="edge"><title>A3&#45;&gt;A9</title>
<path fill="none" stroke="black" d="M417.032,-256.091C469.531,-253.465 557.572,-244.125 625.523,-212 633.729,-208.12 642.252,-203.697 650.492,-199.199"/>
</g>
<!-- A4&#45;&gt;A9 -->
<g id="edge9" class="edge"><title>A4&#45;&gt;A9</title>
<path fill="none" stroke="black" d="M415.402,-215.449C461.526,-215.197 536.228,-212.714 599.523,-201 616.463,-197.865 634.529,-192.785 650.667,-187.586"/>
</g>
<!-- A6 -->
<g id="node7" class="node"><title>A6</title>
<ellipse fill="none" stroke="black" cx="520.779" cy="-169" rx="78.989" ry="22.7556"/>
<text text-anchor="middle" x="520.779" y="-172" font-family="Helvetica,sans-Serif" font-size="10.00">Theo doi tinh trang</text>
<text text-anchor="middle" x="520.779" y="-160" font-family="Helvetica,sans-Serif" font-size="10.00">don hang</text>
</g>
<!-- A5&#45;&gt;A6 -->
<g id="edge5" class="edge"><title>A5&#45;&gt;A6</title>
<path fill="none" stroke="black" stroke-dasharray="5,2" d="M290.422,-169C330.929,-169 385.685,-169 431.538,-169"/>
<polygon fill="black" stroke="black" points="441.778,-169 431.778,-173.5 436.778,-169 431.778,-169 431.778,-169 431.778,-169 436.778,-169 431.778,-164.5 441.778,-169 441.778,-169"/>
<text text-anchor="middle" x="370.785" y="-172" font-family="Helvetica,sans-Serif" font-size="10.00">&lt;&lt;include&gt;&gt;</text>
</g>
<!-- A6&#45;&gt;A9 -->
<g id="edge11" class="edge"><title>A6&#45;&gt;A9</title>
<path fill="none" stroke="black" d="M599.742,-169C616.965,-169 634.778,-169 650.585,-169"/>
</g>
<!-- A8 -->
<g id="node9" class="node"><title>A8</title>
<ellipse fill="none" stroke="black" cx="520.779" cy="-110" rx="66.9372" ry="18"/>
<text text-anchor="middle" x="520.779" y="-107" font-family="Helvetica,sans-Serif" font-size="10.00">So sanh san pham</text>
</g>
<!-- A7&#45;&gt;A8 -->
<g id="edge6" class="edge"><title>A7&#45;&gt;A8</title>
<path fill="none" stroke="black" stroke-dasharray="5,2" d="M306.861,-110C352.329,-110 409.906,-110 453.719,-110"/>
<polygon fill="black" stroke="black" points="296.764,-110 306.764,-105.5 301.764,-110 306.764,-110 306.764,-110 306.764,-110 301.764,-110 306.764,-114.5 296.764,-110 296.764,-110"/>
<text text-anchor="middle" x="370.785" y="-113" font-family="Helvetica,sans-Serif" font-size="10.00">&lt;&lt;extend&gt;&gt;</text>
</g>
<!-- A7&#45;&gt;A9 -->
<g id="edge10" class="edge"><title>A7&#45;&gt;A9</title>
<path fill="none" stroke="black" d="M273.426,-96.2193C343.015,-75.2606 487.239,-41.9172 599.523,-83 626.898,-93.0161 651.984,-114.006 670.404,-132.741"/>
</g>
<!-- A10 -->
<g id="node11" class="node"><title>A10</title>
<ellipse fill="none" stroke="black" cx="520.779" cy="-18" rx="64.1075" ry="18"/>
<text text-anchor="middle" x="520.779" y="-15" font-family="Helvetica,sans-Serif" font-size="10.00">Xuat hoa don ban</text>
</g>
<!-- A10&#45;&gt;A9 -->
<g id="edge12" class="edge"><title>A10&#45;&gt;A9</title>
<path fill="none" stroke="black" d="M576.371,-27.1678C593.326,-31.9372 611.284,-39.143 625.523,-50 653.571,-71.3862 674.046,-106.365 686.593,-132.879"/>
</g>
</g>
</svg>
