<?xml version="1.0" encoding="UTF-8" standalone="no"?>
<!DOCTYPE svg PUBLIC "-//W3C//DTD SVG 1.1//EN"
 "http://www.w3.org/Graphics/SVG/1.1/DTD/svg11.dtd">
<!-- Generated by graphviz version 2.38.0 (20140413.2041)
 -->
<!-- Title: G Pages: 1 -->
<svg width="801pt" height="418pt"
 viewBox="0.00 0.00 801.05 417.63" xmlns="http://www.w3.org/2000/svg" xmlns:xlink="http://www.w3.org/1999/xlink">
<g id="graph0" class="graph" transform="scale(1 1) rotate(0) translate(4 413.627)">
<title>G</title>
<polygon fill="white" stroke="none" points="-4,4 -4,-413.627 797.053,-413.627 797.053,4 -4,4"/>
<!-- A0 -->
<g id="node1" class="node"><title>A0</title>
<polygon fill="beige" stroke="black" points="88.9264,-173.627 17.0036,-173.627 17.0036,-137.627 94.9264,-137.627 94.9264,-167.627 88.9264,-173.627"/>
<polyline fill="none" stroke="black" points="88.9264,-173.627 88.9264,-167.627 "/>
<polyline fill="none" stroke="black" points="94.9264,-167.627 88.9264,-167.627 "/>
<text text-anchor="middle" x="55.965" y="-152.627" font-family="Helvetica,sans-Serif" font-size="10.00">Cutie Shop</text>
</g>
<!-- A1 -->
<g id="node2" class="node"><title>A1</title>
<g transform="translate(55.965,-224.627)" style="fill:none;stroke:black;stroke-width:1px"><circle cx="0" cy="-20" r="7.5" />
                <line x1="0" y1="-12.5" x2="0" y2="5" />
                <line x1="-15" y1="-5" x2="15" y2="-5" />
                <line x1="0" y1="5" x2="-15" y2="17" />
                <line x1="0" y1="5" x2="15" y2="17" /></g>
<text text-anchor="middle" x="55.965" y="-199.627" font-family="Helvetica,sans-Serif" font-size="10.00">Khach hang</text>
</g>
<!-- A2 -->
<g id="node3" class="node"><title>A2</title>
<ellipse fill="none" stroke="black" cx="250.707" cy="-391.627" rx="68.1065" ry="18"/>
<text text-anchor="middle" x="250.707" y="-388.627" font-family="Helvetica,sans-Serif" font-size="10.00">Dang ky thanh vien</text>
</g>
<!-- A1&#45;&gt;A2 -->
<g id="edge1" class="edge"><title>A1&#45;&gt;A2</title>
<path fill="none" stroke="black" d="M70.048,-263.651C82.7141,-293.583 104.753,-335.101 136.93,-359.627 152.145,-371.225 171.392,-378.62 189.658,-383.335"/>
</g>
<!-- A3 -->
<g id="node4" class="node"><title>A3</title>
<ellipse fill="none" stroke="black" cx="409.734" cy="-348.627" rx="46.5003" ry="18"/>
<text text-anchor="middle" x="409.734" y="-345.627" font-family="Helvetica,sans-Serif" font-size="10.00">Dang nhap</text>
</g>
<!-- A1&#45;&gt;A3 -->
<g id="edge2" class="edge"><title>A1&#45;&gt;A3</title>
<path fill="none" stroke="black" d="M91.8923,-263.892C111.127,-281.578 136.435,-301.408 162.93,-312.627 228.858,-340.545 312.639,-347.394 363.399,-348.759"/>
</g>
<!-- A5 -->
<g id="node6" class="node"><title>A5</title>
<ellipse fill="none" stroke="black" cx="409.734" cy="-307.627" rx="44.4846" ry="18"/>
<text text-anchor="middle" x="409.734" y="-304.627" font-family="Helvetica,sans-Serif" font-size="10.00">Dang xuat</text>
</g>
<!-- A1&#45;&gt;A5 -->
<g id="edge4" class="edge"><title>A1&#45;&gt;A5</title>
<path fill="none" stroke="black" d="M109.009,-263.716C125.544,-273.464 144.373,-282.892 162.93,-288.627 231.426,-309.796 315.519,-311.398 365.475,-309.975"/>
</g>
<!-- A6 -->
<g id="node7" class="node"><title>A6</title>
<ellipse fill="none" stroke="black" cx="250.707" cy="-261.627" rx="58.8923" ry="18"/>
<text text-anchor="middle" x="250.707" y="-258.627" font-family="Helvetica,sans-Serif" font-size="10.00">Dat hang online</text>
</g>
<!-- A1&#45;&gt;A6 -->
<g id="edge6" class="edge"><title>A1&#45;&gt;A6</title>
<path fill="none" stroke="black" d="M111.939,-237.325C139.423,-242.173 172.452,-247.999 199.28,-252.732"/>
</g>
<!-- A7 -->
<g id="node8" class="node"><title>A7</title>
<ellipse fill="none" stroke="black" cx="250.707" cy="-207.627" rx="65.0824" ry="18"/>
<text text-anchor="middle" x="250.707" y="-204.627" font-family="Helvetica,sans-Serif" font-size="10.00">Tra cuu san pham</text>
</g>
<!-- A1&#45;&gt;A7 -->
<g id="edge7" class="edge"><title>A1&#45;&gt;A7</title>
<path fill="none" stroke="black" d="M111.939,-221.923C136.085,-219.418 164.51,-216.468 189.251,-213.901"/>
</g>
<!-- A9 -->
<g id="node10" class="node"><title>A9</title>
<ellipse fill="none" stroke="black" cx="250.707" cy="-148.627" rx="77.3264" ry="22.7556"/>
<text text-anchor="middle" x="250.707" y="-151.627" font-family="Helvetica,sans-Serif" font-size="10.00">Tich luy va tra cuu</text>
<text text-anchor="middle" x="250.707" y="-139.627" font-family="Helvetica,sans-Serif" font-size="10.00">diem</text>
</g>
<!-- A1&#45;&gt;A9 -->
<g id="edge10" class="edge"><title>A1&#45;&gt;A9</title>
<path fill="none" stroke="black" d="M111.95,-202.437C128.267,-195.18 146.239,-187.398 162.93,-180.627 175.131,-175.678 188.419,-170.616 200.846,-166.021"/>
</g>
<!-- A10 -->
<g id="node11" class="node"><title>A10</title>
<ellipse fill="none" stroke="black" cx="250.707" cy="-85.6274" rx="83.7132" ry="22.7556"/>
<text text-anchor="middle" x="250.707" y="-88.6274" font-family="Helvetica,sans-Serif" font-size="10.00">Dung diem tich luy</text>
<text text-anchor="middle" x="250.707" y="-76.6274" font-family="Helvetica,sans-Serif" font-size="10.00">de giam gia hoa don</text>
</g>
<!-- A1&#45;&gt;A10 -->
<g id="edge11" class="edge"><title>A1&#45;&gt;A10</title>
<path fill="none" stroke="black" d="M102.685,-191.58C105.891,-188.635 109.007,-185.634 111.93,-182.627 137.771,-156.048 132.933,-138.408 162.93,-116.627 171.215,-110.612 180.781,-105.667 190.47,-101.632"/>
</g>
<!-- A12 -->
<g id="node13" class="node"><title>A12</title>
<ellipse fill="none" stroke="black" cx="250.707" cy="-22.6274" rx="87.5554" ry="22.7556"/>
<text text-anchor="middle" x="250.707" y="-25.6274" font-family="Helvetica,sans-Serif" font-size="10.00">Tu van, tra loi qua</text>
<text text-anchor="middle" x="250.707" y="-13.6274" font-family="Helvetica,sans-Serif" font-size="10.00">Facebook messenger</text>
</g>
<!-- A1&#45;&gt;A12 -->
<g id="edge14" class="edge"><title>A1&#45;&gt;A12</title>
<path fill="none" stroke="black" d="M104.483,-191.603C107.161,-188.715 109.676,-185.715 111.93,-182.627 148.283,-132.834 118.614,-96.4878 162.93,-53.6274 169.6,-47.1767 177.702,-42.0578 186.244,-37.9982"/>
</g>
<!-- A4 -->
<g id="node5" class="node"><title>A4</title>
<g transform="translate(741.263,-288.627)" style="fill:none;stroke:black;stroke-width:1px"><circle cx="0" cy="-20" r="7.5" />
                <line x1="0" y1="-12.5" x2="0" y2="5" />
                <line x1="-15" y1="-5" x2="15" y2="-5" />
                <line x1="0" y1="5" x2="-15" y2="17" />
                <line x1="0" y1="5" x2="15" y2="17" /></g>
<text text-anchor="middle" x="741.263" y="-263.627" font-family="Helvetica,sans-Serif" font-size="10.00">Nhan vien</text>
</g>
<!-- A3&#45;&gt;A4 -->
<g id="edge3" class="edge"><title>A3&#45;&gt;A4</title>
<path fill="none" stroke="black" d="M454.019,-343.059C504.674,-336.292 590.985,-323.983 664.472,-309.627 672.569,-308.046 681.11,-306.196 689.424,-304.295"/>
</g>
<!-- A5&#45;&gt;A4 -->
<g id="edge5" class="edge"><title>A5&#45;&gt;A4</title>
<path fill="none" stroke="black" d="M453.814,-305.536C514.526,-302.588 625.04,-297.222 689.608,-294.087"/>
</g>
<!-- A11 -->
<g id="node12" class="node"><title>A11</title>
<ellipse fill="none" stroke="black" cx="559.728" cy="-259.627" rx="78.989" ry="22.7556"/>
<text text-anchor="middle" x="559.728" y="-262.627" font-family="Helvetica,sans-Serif" font-size="10.00">Theo doi tinh trang</text>
<text text-anchor="middle" x="559.728" y="-250.627" font-family="Helvetica,sans-Serif" font-size="10.00">don hang</text>
</g>
<!-- A6&#45;&gt;A11 -->
<g id="edge12" class="edge"><title>A6&#45;&gt;A11</title>
<path fill="none" stroke="black" stroke-dasharray="5,2" d="M309.817,-261.249C355.206,-260.953 419.032,-260.537 470.687,-260.201"/>
<polygon fill="black" stroke="black" points="480.847,-260.135 470.877,-264.7 475.847,-260.167 470.847,-260.2 470.847,-260.2 470.847,-260.2 475.847,-260.167 470.818,-255.7 480.847,-260.135 480.847,-260.135"/>
<text text-anchor="middle" x="409.734" y="-263.627" font-family="Helvetica,sans-Serif" font-size="10.00">&lt;&lt;include&gt;&gt;</text>
</g>
<!-- A7&#45;&gt;A4 -->
<g id="edge8" class="edge"><title>A7&#45;&gt;A4</title>
<path fill="none" stroke="black" d="M312.34,-201.504C389.933,-195.738 527.573,-192.534 638.472,-227.627 657.877,-233.768 677.265,-244.514 693.836,-255.468"/>
</g>
<!-- A8 -->
<g id="node9" class="node"><title>A8</title>
<ellipse fill="none" stroke="black" cx="559.728" cy="-162.627" rx="66.9372" ry="18"/>
<text text-anchor="middle" x="559.728" y="-159.627" font-family="Helvetica,sans-Serif" font-size="10.00">So sanh san pham</text>
</g>
<!-- A7&#45;&gt;A8 -->
<g id="edge9" class="edge"><title>A7&#45;&gt;A8</title>
<path fill="none" stroke="black" stroke-dasharray="5,2" d="M309.549,-193.327C326.818,-189.427 345.847,-185.493 363.485,-182.627 407.039,-175.551 456.49,-170.516 494.727,-167.268"/>
<polygon fill="black" stroke="black" points="299.608,-195.611 308.346,-188.986 304.481,-194.491 309.354,-193.372 309.354,-193.372 309.354,-193.372 304.481,-194.491 310.362,-197.757 299.608,-195.611 299.608,-195.611"/>
<text text-anchor="middle" x="409.734" y="-185.627" font-family="Helvetica,sans-Serif" font-size="10.00">&lt;&lt;extend&gt;&gt;</text>
</g>
<!-- A11&#45;&gt;A4 -->
<g id="edge13" class="edge"><title>A11&#45;&gt;A4</title>
<path fill="none" stroke="black" d="M627.07,-271.452C647.747,-275.138 670.206,-279.141 689.628,-282.602"/>
</g>
</g>
</svg>
