<?xml version="1.0" encoding="utf-8"?>
<!-- Generator: Adobe Illustrator 22.0.1, SVG Export Plug-In . SVG Version: 6.00 Build 0)  -->
<svg version="1.1" id="Layer_1" xmlns="http://www.w3.org/2000/svg" xmlns:xlink="http://www.w3.org/1999/xlink" x="0px" y="0px"
	 viewBox="0 0 48 48" style="enable-background:new 0 0 48 48;" xml:space="preserve">
<style type="text/css">
	.st0{fill:#FFFFFF;}
</style>
<g id="surface1">
	<path class="st0" d="M22,44c-1.1,0-2-0.9-2-2v-6h-4c-2.2,0-4-1.8-4-4V16c0-2.2,1.8-4,4-4h24c2.2,0,4,1.8,4,4v16c0,2.2-1.8,4-4,4
		h-8.2l-7.4,7.4C24,43.8,23.5,44,23,44H22 M8,30c-2.2,0-4-1.8-4-4V8c0-2.2,1.8-4,4-4h26c2.2,0,4,1.8,4,4H14c-3.3,0-6,2.7-6,6V30z"/>
</g>
</svg>
