<?xml version="1.0" encoding="utf-8"?>
<!-- Generator: Adobe Illustrator 22.0.1, SVG Export Plug-In . SVG Version: 6.00 Build 0)  -->
<svg version="1.1" id="Layer_1" xmlns="http://www.w3.org/2000/svg" xmlns:xlink="http://www.w3.org/1999/xlink" x="0px" y="0px"
	 viewBox="0 0 52 52" style="enable-background:new 0 0 52 52;" xml:space="preserve">
<style type="text/css">
	.st0{fill:#FFFFFF;}
</style>
<g id="surface1">
	<path class="st0" d="M2.4,2C0.7,2.2-0.5,3.7-0.3,5.3S1.3,8.2,3,8c2.2,0,3.2,0.5,3.8,1.1c0.6,0.5,1,1.3,1.3,2.5c0.7,4,3.4,17,4,20.1
		C13.1,36.9,17.9,40,23,40h16c1.9,0,2.6-0.9,3.3-1.6s1.2-1.4,1.8-2.2c1.2-1.7,2.4-3.8,3.5-5.8c2.3-4.1,4.1-8.2,4.1-8.2
		c0.7-1,0.7-2.3,0.1-3.3c-0.6-1-1.8-1.5-3-1.4c-1.2,0.2-2.1,1-2.5,2.1c0,0-1.9,3.9-4,7.8c-1.1,1.9-2.3,3.9-3.2,5.2
		c-0.4,0.6-0.8,1-1,1.3H23c-2.9,0-4.5-1.1-5.1-3.6c-0.6-3.1-3.3-16.2-4-19.9c-0.4-2-1.2-4.3-3.1-5.9C8.9,2.9,6.2,2,3,2
		C2.9,2,2.8,2,2.7,2C2.6,2,2.5,2,2.4,2z M30,4.1c-1.1,0-2.8,0.4-3.3,1c-0.3,0.4-0.7,9-0.7,9h-4.5c-0.4,0-0.7,0.2-0.9,0.6
		c-0.2,0.4-0.2,0.8,0,1.1c3,4.4,8.5,9.8,8.7,9.9c0.2,0.2,0.4,0.3,0.7,0.3s0.5-0.1,0.7-0.3c0.2-0.2,5.6-5.5,8.6-9.9
		c0.2-0.3,0.3-0.8,0.1-1.1c-0.2-0.4-0.5-0.6-0.9-0.6h-4.5c0,0-0.4-8.6-0.7-9C32.8,4.5,31.1,4.1,30,4.1z M21,42c-2.8,0-5,2.2-5,5
		s2.2,5,5,5s5-2.2,5-5S23.8,42,21,42z M39,42c-2.8,0-5,2.2-5,5s2.2,5,5,5s5-2.2,5-5S41.8,42,39,42z"/>
</g>
</svg>
