<?xml version="1.0" encoding="utf-8"?>
<!-- Generator: Adobe Illustrator 22.0.1, SVG Export Plug-In . SVG Version: 6.00 Build 0)  -->
<svg version="1.1" id="Layer_1" xmlns="http://www.w3.org/2000/svg" xmlns:xlink="http://www.w3.org/1999/xlink" x="0px" y="0px"
	 viewBox="0 0 96 96" style="enable-background:new 0 0 96 96;" xml:space="preserve">
<style type="text/css">
	.st0{fill:#FFFFFF;}
</style>
<g id="surface1">
	<path class="st0" d="M36,8c0,4.8-3.2,8-8,8h-4c-8.8,0-16,7.2-16,16c0,7.5,5.1,13.6,12,15.4V88h8V66c0-7.6,6.4-14,14-14
		c5.6,0,10,4.4,10,10v26h8V56h8v32h8V51.5c6.9-1.6,12-7.1,12-13.5V18l-8,7.6c-2.4-1.2-5.2-2-8-2s-5.6,0.8-8,2L56,18v20
		c0,4.6,2.7,8.8,6.8,11.4C57.2,47.2,52,42.4,52,32c0,0-5.6-4-12-4c-11.3,0-16.3,6.9-18.5,11.6C18.1,38.7,16,35.9,16,32
		c0-4.8,3.2-8,8-8h4c8.8,0,16-7.2,16-16H36z M68,32c2.4,0,4,1.6,4,4s-1.6,4-4,4s-4-1.6-4-4S65.6,32,68,32z M80,32c2.4,0,4,1.6,4,4
		s-1.6,4-4,4s-4-1.6-4-4S77.6,32,80,32z M40,56.4c-4.8,0.8-8,5.6-8,10.4V88h8V56.4z"/>
</g>
</svg>
