<?xml version="1.0" encoding="utf-8"?>
<!-- Generator: Adobe Illustrator 22.0.1, SVG Export Plug-In . SVG Version: 6.00 Build 0)  -->
<svg version="1.1" id="Layer_1" xmlns="http://www.w3.org/2000/svg" xmlns:xlink="http://www.w3.org/1999/xlink" x="0px" y="0px"
	 viewBox="0 0 100 100" style="enable-background:new 0 0 100 100;" xml:space="preserve">
<style type="text/css">
	.st0{fill:#FFFFFF;}
</style>
<g id="surface1">
	<path class="st0" d="M63.9,2c-0.2,0-0.3,0.1-0.5,0.1C62.7,2.4,62.1,3,62,3.8l-3.6,29.1L82,44.8V36h10c0.8,0,1.5-0.5,1.8-1.2l6-14
		c0.2-0.5,0.3-1.1,0.1-1.6s-0.6-0.9-1.1-1.1l-20-8C78.5,10,78.3,10,78,10h-5.2l-7.4-7.4C65,2.2,64.4,2,63.9,2z M79,18
		c1.7,0,3,1.3,3,3s-1.3,3-3,3s-3-1.3-3-3S77.3,18,79,18z M5.8,25.9c-1,0-2,0.3-2.8,0.8c-1.8,1-3.1,2.7-3.3,4.7
		c-0.2,1.9,0.5,3.7,1.9,4.9L8,42.4v45.4c0,3.5,2.2,6.6,5.4,7.7c0.8,0.2,1.6,0.4,2.4,0.4c4.5,0,8.1-3.5,8.1-7.9V66h38v21.8
		c0,3.5,2.2,6.6,5.4,7.7c0.8,0.2,1.6,0.4,2.4,0.4c2.2,0,4.2-0.8,5.8-2.3c1.5-1.5,2.4-3.5,2.4-5.6V64.4l3.9-9.6
		C82,54.5,82,54.3,82,54v-4.8L51.8,34H16.4l-6.3-6.2C9,26.6,7.4,25.9,5.8,25.9z M28,70v13.6l4.9,8.3c1.6,2.5,4.3,4.1,6.9,4.1
		c0.6,0,1.1-0.1,1.6-0.2c2.6-0.6,4.7-2.3,5.8-4.8c1-2.3,0.8-5-0.4-7.2L38.6,70H28z"/>
</g>
</svg>
