<?xml version="1.0" encoding="utf-8"?>
<!-- Generator: Adobe Illustrator 22.0.1, SVG Export Plug-In . SVG Version: 6.00 Build 0)  -->
<svg version="1.1" id="Layer_1" xmlns="http://www.w3.org/2000/svg" xmlns:xlink="http://www.w3.org/1999/xlink" x="0px" y="0px"
	 viewBox="0 0 528 528" style="enable-background:new 0 0 528 528;" xml:space="preserve">
<style type="text/css">
	.st0{fill:#FFCA28;}
	.st1{fill:#6D4C41;}
	.st2{fill:#FFFFFF;}
	.st3{fill:none;stroke:#B76C09;stroke-width:2;}
</style>
<g id="surface1">
	<path class="st0" d="M473,264c0,115.4-93.6,209-209,209S55,379.4,55,264S148.6,55,264,55S473,148.6,473,264z"/>
	<path class="st1" d="M231,253c0,24.3-19.7,44-44,44s-44-19.7-44-44s19.7-44,44-44S231,228.7,231,253z"/>
	<path class="st2" d="M187,236.5c0,9.1-7.4,16.5-16.5,16.5s-16.5-7.4-16.5-16.5s7.4-16.5,16.5-16.5S187,227.4,187,236.5z"/>
	<path class="st1" d="M385,253c0,24.3-19.7,44-44,44s-44-19.7-44-44s19.7-44,44-44S385,228.7,385,253z"/>
	<path class="st2" d="M341,236.5c0,9.1-7.4,16.5-16.5,16.5s-16.5-7.4-16.5-16.5s7.4-16.5,16.5-16.5S341,227.4,341,236.5z"/>
	<path class="st3" d="M308,352c0,24.3-19.7,44-44,44s-44-19.7-44-44"/>
</g>
</svg>
