<?xml version="1.0" encoding="utf-8"?>
<!-- Generator: Adobe Illustrator 22.0.1, SVG Export Plug-In . SVG Version: 6.00 Build 0)  -->
<svg version="1.1" id="Layer_1" xmlns="http://www.w3.org/2000/svg" xmlns:xlink="http://www.w3.org/1999/xlink" x="0px" y="0px"
	 viewBox="0 0 100 100" style="enable-background:new 0 0 100 100;" xml:space="preserve">
<style type="text/css">
	.st0{fill:#FFFFFF;}
</style>
<g id="surface1">
	<path class="st0" d="M64,28c-1.2,0-2.2,0.4-2.9,1.3c-1.3,1.5-1.5,3.7-1.3,5.9c-2.9-0.9-8.7-2.5-19.3-5.2C25,26.2,15,28,8.4,35.9
		c-0.9-0.6-3.3-2.2-4.7-4.8C3.5,30.4,2.8,30,2,30c-0.7,0-1.4,0.3-1.7,0.9c-0.4,0.6-0.4,1.4-0.1,2c1.7,3.4,4.5,5.4,5.9,6.3
		C-3.4,58.5,2,70.9,4.7,75.4C5.6,76.8,7.8,80,10,80c2.1,0,3.2-1.9,4.1-3.6c0.7-1.3,1.6-2.8,2.7-3.3c9.1-4.2,23.8-4.2,36.5,0.1
		c2.6,0.9,4.7,2.2,6.8,3.6c2.6,1.7,5.1,3.3,7.8,3.3c0.7,0,1.3-0.3,1.8-0.8c0.9-1,1.2-2.6,1-5.9c0-1,0.1-1.9,0.4-2.7
		c-7.6-0.1-16.6-2.8-19.2-12c-0.3-1.1,0.3-2.2,1.4-2.5c1.1-0.3,2.2,0.3,2.5,1.4c2.7,9.6,14.8,9.4,19.6,8.9c0.2-0.1,0.5-0.2,0.7-0.2
		c3.9-1,6.7-1.7,8.3-2.2c5.3-1.6,9.2-4.5,11-6.6c1.6-1.9,3.3-4.7,3.4-4.8l1.3-4.9l-0.6-0.8c-0.2-0.2-4.1-5.2-12.9-8.6
		c-6.9-2.7-12-3.7-13.8-4C70,31.2,66.2,28,64,28z M74.7,42.3c1.9,0,3.3,1.5,3.3,3.3S76.5,49,74.7,49s-3.3-1.5-3.3-3.3
		C71.3,43.8,72.8,42.3,74.7,42.3z"/>
</g>
</svg>
