<?xml version="1.0" encoding="utf-8"?>
<!-- Generator: Adobe Illustrator 22.0.1, SVG Export Plug-In . SVG Version: 6.00 Build 0)  -->
<svg version="1.1" id="Layer_1" xmlns="http://www.w3.org/2000/svg" xmlns:xlink="http://www.w3.org/1999/xlink" x="0px" y="0px"
	 viewBox="0 0 100 100" style="enable-background:new 0 0 100 100;" xml:space="preserve">
<style type="text/css">
	.st0{fill:#FFFFFF;}
</style>
<g id="surface1">
	<path class="st0" d="M50,6C29,6,12,23,12,44c0,7.5,2.3,14.5,6.1,20.4c0,0,0,0.1,0.1,0.1c0,0,0,0,0,0.1c0.1,0.4,0.4,0.7,0.7,0.9
		c2.4,3.4,5.2,6.4,8.5,8.8l-11,16.5c-0.4,0.6-0.5,1.4-0.1,2.1c0.4,0.7,1,1.1,1.8,1h64c0.7,0,1.4-0.4,1.8-1c0.4-0.6,0.4-1.4,0-2
		c-0.4-0.6-1-1-1.8-1H21.8l8.9-13.4l2.3-3.3l18.8-28.2c0.5-0.7,0.5-1.6,0-2.3c-0.5-0.7-1.4-1-2.2-0.8c-0.5,0.1-1,0.4-1.3,0.9
		l-2.9,4.4C43.4,46.5,41,46,38,46c-2.9,0-5.6,0.7-7.7,2c0,0,0,0-0.1,0c-2.3-0.3-4.6-3.1-4.6-3.1c-0.4-0.7-1.3-1-2.1-0.9
		c-0.7,0.1-1.2,0.6-1.4,1.2s-0.1,1.3,0.3,1.9c0,0,1.7,2.7,4.8,4.1C26.4,52.6,26,54.2,26,56c0,1.8,0.4,3.4,1,4.9
		c-1.1,0.5-3.1,1.1-5.8,1.1C17.9,56.8,16,50.6,16,44c0-18.8,15.3-34,34-34s34,15.3,34,34c0,7.6-2.5,14.7-6.8,20.4c0,0,0,0-0.1-0.1
		c-0.1-0.1-0.2-0.1-0.4-0.2C76.5,64,76.2,64,75.9,64c-0.6,0-1.1,0-1.6,0s-1-0.1-1.4-0.1c-0.8-0.1-1.6-0.3-2.1-0.6
		c-0.2-0.1-0.3-0.1-0.4-0.2c4.2-4.2,7.2-10.3,7.6-19c0.1-1.2-0.8-2.1-2-2.1c-3.6,0-8-0.2-11.1,1.8c-0.6,0.4-1.4,0.4-2-0.1
		c-2-1.4-5.7-2.7-6.5-0.6c-1.2,3.2,0.6,7.8,3.7,8.9h-2.2c-2,0-3.6-0.5-5.2-1.3L39.3,70.8c2.6,0.8,5.4,1.2,8.2,1.2
		c3.2,0,7.3-0.5,11.4-1.9c0.9,1.3,2.6,3.3,5.4,4.7C60,76.8,55.1,78,50,78c-4.8,0-9.4-1-13.6-2.8l-2.3,3.3C39,80.7,44.4,82,50,82
		c21,0,38-17,38-38S71,6,50,6z M68.1,46c1.1,0,2,0.9,2,2s-0.9,2-2,2s-2-0.9-2-2S67,46,68.1,46z M29.1,64.4c0.9,1.1,1.9,2,3,2.8
		l-2.6,3.8c-2-1.5-3.9-3.3-5.5-5.3C26.3,65.5,28,64.9,29.1,64.4z M67.2,65.9c0.1,0.1,0.1,0.1,0.3,0.2c0.5,0.3,1.1,0.6,1.9,0.9
		c0.4,0.2,0.8,0.3,1.3,0.4c0.5,0.1,1,0.3,1.6,0.4c0.5,0.1,1.1,0.2,1.8,0.2c-1.6,1.6-3.2,3-5.1,4.3c-0.1-0.1-0.3-0.1-0.4-0.2
		c-3.2-0.8-5-2.4-5.9-3.5C64.2,67.8,65.7,66.9,67.2,65.9z"/>
</g>
</svg>
