<svg xmlns="http://www.w3.org/2000/svg" xmlns:xlink="http://www.w3.org/1999/xlink" viewBox="0 0 963.11 472.16"><defs><style>.cls-1,.cls-3{fill:#f7931e;}.cls-2,.cls-3,.cls-4,.cls-5{font-size:400px;font-family:MyriadPro-Regular, Myriad Pro;}.cls-2{fill:#22b573;}.cls-4{fill:#f15a24;}.cls-5{fill:#29abe2;}</style><symbol id="i_Symbol" data-name="i Symbol" viewBox="0 0 35.2 193.6"><path class="cls-1" d="M0,193.6V0H35.2V193.6Z"/></symbol></defs><title>Logo</title><g id="Layer_1" data-name="Layer 1"><text class="cls-2" transform="translate(58.14 373.67) rotate(-10)">C</text></g><g id="Layer_2" data-name="Layer 2"><text class="cls-3" transform="translate(262.99 341.12)">u</text></g><g id="Layer_3" data-name="Layer 3"><text class="cls-4" transform="translate(478.76 347.03)">t</text></g><g id="Layer_4" data-name="Layer 4"><use id="i_Symbol-3" data-name="i Symbol" width="35.2" height="193.6" transform="translate(652.3 157.66)" xlink:href="#i_Symbol"/><g id="surface1"><path class="cls-1" d="M689.54,160.71c-6.75,0-10.39,6.7-10.39,13,0,5,3.94,14.55,10.11,14.55,4,0,8.75-2.83,8.75-16.27C698,166.09,694,160.71,689.54,160.71Zm22.62,0c-7.35,0-11.25,7.37-11.25,12.69,0,4.24,1.67,16.32,9.07,16.32s11.24-8.55,11.24-16.59S716,160.71,712.16,160.71Zm-39.22,23.21c-4.84,0-9.74,7.08-9.74,14,0,4.94,3.71,12.1,9.52,12.1s9.34-7.61,9.34-15C682.06,189.43,677.53,183.92,672.94,183.92Zm55.67,0c-3.78.08-7.65,3.45-11,9.75-2.35,4.38-2.82,8.57-1.36,11.78a7.7,7.7,0,0,0,5.35,4.4,7.24,7.24,0,0,0,1.67.18c4.54,0,9-4.28,11.61-11.19a14.59,14.59,0,0,0-.59-11.29,6.32,6.32,0,0,0-4-3.45A7,7,0,0,0,728.61,183.92ZM698.33,197c-4.64,0-7.57,3.45-10.65,7.11-1,1.22-2,2.46-3.22,3.68a38.68,38.68,0,0,1-4.13,3.58c-3,2.35-5.53,4.4-5.53,9.06,0,4.22,3.2,8.48,9.3,8.48a26.2,26.2,0,0,0,8.16-1.45,21.49,21.49,0,0,1,6.57-1.22,39.67,39.67,0,0,1,7.62.9,38.77,38.77,0,0,0,7.38,1c6.83,0,10.3-2.84,10.3-8.35,0-4.21-3.61-5.79-6.8-7.2-2.11-.94-4.28-1.91-5.63-3.54a50.63,50.63,0,0,1-3-4.17C706,200.79,703.49,197,698.33,197Z" transform="translate(-28.24 -90.59)"/></g></g><g id="Layer_5" data-name="Layer 5"><text class="cls-5" transform="translate(748.4 364.52) rotate(-10)">e</text></g></svg>