<?xml version="1.0" encoding="utf-8"?>
<!-- Generator: Adobe Illustrator 22.0.1, SVG Export Plug-In . SVG Version: 6.00 Build 0)  -->
<svg version="1.1" id="Layer_1" xmlns="http://www.w3.org/2000/svg" xmlns:xlink="http://www.w3.org/1999/xlink" x="0px" y="0px"
	 viewBox="0 0 528 528" style="enable-background:new 0 0 528 528;" xml:space="preserve">
<style type="text/css">
	.st0{fill:#64B5F6;}
	.st1{fill:#1E88E5;}
	.st2{fill:#90CAF9;}
	.st3{fill:#42A5F5;}
	.st4{fill:#BBDEFB;}
	.st5{fill:#4CAF50;}
	.st6{fill:#FFFFFF;}
	.st7{fill:#FFC107;}
</style>
<g id="surface1">
	<path class="st0" d="M192.2,94.4l292,98l-98,292l-292-98L192.2,94.4z"/>
	<path class="st1" d="M211.6,137.5l230.1,74.9l-68.1,209.2l-230.1-74.9L211.6,137.5z"/>
	<path class="st2" d="M119.7,63.6l302.9,55.9l-55.9,302.9L63.8,366.5L119.7,63.6z"/>
	<path class="st3" d="M145.4,103.8l238.3,42.3l-38.4,216.6L107,320.4L145.4,103.8z"/>
	<path class="st4" d="M44,44h308v308H44V44z"/>
	<path class="st5" d="M77,77h242v220H77V77z"/>
	<path class="st6" d="M176,143c0-12.1,9.9-22,22-22s22,9.9,22,22s-22,44-22,44S176,155.1,176,143z"/>
	<path class="st6" d="M220,231c0,12.1-9.9,22-22,22s-22-9.9-22-22s22-44,22-44S220,218.9,220,231z"/>
	<path class="st6" d="M148.5,183.7c-11-6.6-14.3-19.8-7.7-29.7c6.6-11,19.8-14.3,29.7-7.7c11,6.6,27.5,40.7,27.5,40.7
		S159.5,190.3,148.5,183.7z"/>
	<path class="st6" d="M247.5,190.3c11,6.6,14.3,19.8,7.7,29.7c-6.6,11-19.8,14.3-29.7,7.7c-11-5.5-27.5-40.7-27.5-40.7
		S236.5,183.7,247.5,190.3z"/>
	<path class="st6" d="M247.5,183.7c11-6.6,14.3-19.8,7.7-29.7c-6.6-11-19.8-14.3-29.7-7.7c-11,5.5-27.5,40.7-27.5,40.7
		S236.5,190.3,247.5,183.7z"/>
	<path class="st6" d="M148.5,190.3c-11,6.6-14.3,19.8-7.7,29.7c6.6,11,19.8,14.3,29.7,7.7c11-6.6,27.5-40.7,27.5-40.7
		S159.5,183.7,148.5,190.3z"/>
	<path class="st7" d="M220,187c0,12.1-9.9,22-22,22s-22-9.9-22-22s9.9-22,22-22S220,174.9,220,187z"/>
</g>
</svg>
