<?xml version="1.0" encoding="utf-8"?>
<!-- Generator: Adobe Illustrator 22.0.1, SVG Export Plug-In . SVG Version: 6.00 Build 0)  -->
<svg version="1.1" id="Layer_1" xmlns="http://www.w3.org/2000/svg" xmlns:xlink="http://www.w3.org/1999/xlink" x="0px" y="0px"
	 viewBox="0 0 104 104" style="enable-background:new 0 0 104 104;" xml:space="preserve">
<style type="text/css">
	.st0{fill:#FFFFFF;}
</style>
<g id="surface1">
	<path class="st0" d="M41.6,4c-2,0-5.6,0.8-5.6,4c0,2.4,0.9,3.5,3,4.5c-1.3-0.3-2.4-0.5-3.4-0.5c-4.4,0-7.6,2.8-7.6,5.3
		c0,8.8,15.2,4.5,33.3,13.4c-0.8,1.8-1.3,3.7-1.4,5.5C54.2,47.1,8.5,22.7,8,76c-4.4,0-8,3.6-8,8s3.6,8,8,8c2.4,0,5.7-1.1,8.3-2.8
		c1,4.9-0.3,6.9-0.3,10.8c0,2.8,4.4,4,10,3.3c4.8,0,10.4-1.3,15.6-1.3c11.2,0,34,3.3,34-0.8c0-2.8-2.9-9.6-32.9-9.6
		C48,90.8,56.4,90,62.4,82c7.2-8.8-4-28-20.8-15.3c0,0,5.6-6.8,12-6.8c8.4,0,17.5,8,12.8,20c3.2,4.4,14.9,24,18.9,24
		c8,0,14,0.4,14-1.6c0-9.6-10-5.2-12-8c-0.8-1.2-0.5-8.8-2.5-14.8c-4.3-12.1,0.1-17.2,0.4-23.6c8.3-0.1,16.4-2.3,18.1-6.4
		c3.2-7.6-6-22.8-15.3-27.3c-4.8-2.5-10.6-2.8-15.6-1.4c-1.3-1.8-3.8-4.9-9.1-9C56,6.8,47.2,4,41.6,4z M88,32c2.4,0,4,1.6,4,4
		s-1.6,4-4,4s-4-1.6-4-4S85.6,32,88,32z"/>
</g>
</svg>
