<?xml version="1.0" encoding="utf-8"?>
<!-- Generator: Adobe Illustrator 22.0.1, SVG Export Plug-In . SVG Version: 6.00 Build 0)  -->
<svg version="1.1" id="Layer_1" xmlns="http://www.w3.org/2000/svg" xmlns:xlink="http://www.w3.org/1999/xlink" x="0px" y="0px"
	 viewBox="0 0 104 104" style="enable-background:new 0 0 104 104;" xml:space="preserve">
<style type="text/css">
	.st0{fill:#FFFFFF;}
</style>
<g id="surface1">
	<path class="st0" d="M89.5,20c-1.5-0.1-2.9,0.1-4.3,0.8c-6.3,2.8-8.6,14.1-11.3,20.5c-6.3,15.5-36.9,24-61.1,27.1
		C8.3,69,3.8,72.2,0.3,76c4.3-1.5,11-1.5,14.3,0.8c0,2.5-2,5.5-3.3,7.1C9.2,86.5,9.2,88,11.9,88c2.5,0,3.9,0,8.5,0
		c2,0,3.2-0.8,7.8-7.8c18.7,3.7,31.1-1.4,31.1-1.4s2.1,9.1,7.4,9.1h7.8c3.3,0,3.5-1.7,3.3-2.3c-2.3-5.6-3.5-9.7-4-13
		c-1.4-9.7,3.4-20,13.1-28.4c3,5.1,11.7,4.4,15.1-0.5s2.3-11.8-1-16.8C98.3,23.3,93.9,20.2,89.5,20z M42.8,24.3
		c-3.8-0.1-8,0.6-13,2.1C7.9,33.1,8,52.1,11.5,56.3c0,0-5,2.5-2.1,6.6c2.3,3.4,16.3,1,28.1-2.8s22-9.3,27.6-14
		C70,42,68,35.2,62.5,36C59.9,30.9,54,24.5,42.8,24.3z M98,31c1.7,0,3,1.3,3,3s-1.3,3-3,3s-3-1.3-3-3S96.3,31,98,31z"/>
</g>
</svg>
